<?xml version="1.0" encoding="UTF-8" standalone="no"?>
<svg
   role="img"
   width="47"
   height="47"
   viewBox="0 0 47 47"
   fill="none"
   version="1.1"
   id="svg12"
   sodipodi:docname="HathiTrust_logo_2023.svg"
   inkscape:version="1.3.2 (091e20e, 2023-11-25, custom)"
   xmlns:inkscape="http://www.inkscape.org/namespaces/inkscape"
   xmlns:sodipodi="http://sodipodi.sourceforge.net/DTD/sodipodi-0.dtd"
   xmlns="http://www.w3.org/2000/svg"
   xmlns:svg="http://www.w3.org/2000/svg"
   xmlns:rdf="http://www.w3.org/1999/02/22-rdf-syntax-ns#"
   xmlns:cc="http://creativecommons.org/ns#"
   xmlns:dc="http://purl.org/dc/elements/1.1/">
  <sodipodi:namedview
     id="namedview12"
     pagecolor="#505050"
     bordercolor="#eeeeee"
     borderopacity="1"
     inkscape:showpageshadow="0"
     inkscape:pageopacity="0"
     inkscape:pagecheckerboard="0"
     inkscape:deskcolor="#505050"
     inkscape:zoom="9.05"
     inkscape:cx="59.834254"
     inkscape:cy="17.18232"
     inkscape:window-width="2560"
     inkscape:window-height="1511"
     inkscape:window-x="-9"
     inkscape:window-y="-9"
     inkscape:window-maximized="1"
     inkscape:current-layer="svg12" />
  <title
     id="title1">HathiTrust Home</title>
  <g
     clip-path="url(#clip0_410_7968)"
     id="g12"
     transform="translate(2)">
    <g
       id="g13"
       transform="translate(-136.734)">
      <path
         d="m 171.95,3.49043 -0.359,-0.45 -0.575,0.02812 c -0.072,0.00313 -7.082,0.30626 -9.9,-2.512495 L 160.562,0.00292969 150.9,4.45606 c -4.562,2.10312 -7.509,6.70624 -7.509,11.73124 v 14.875 c -0.078,0 -0.157,0.0031 -0.232,0.0031 -1.565,0 -3.084,-0.3062 -4.515,-0.9125 l -1.035,-0.4375 -0.875,2.0657 1.035,0.4375 c 1.706,0.7218 3.519,1.0875 5.387,1.0875 0.078,0 0.157,0 0.232,-0.0032 v 7.4157 c 0,3.2218 2.55,5.8875 5.684,5.9437 0.037,0 0.072,0 0.109,0 1.528,0 2.963,-0.5875 4.056,-1.6594 1.119,-1.0968 1.735,-2.5656 1.735,-4.1312 h -2.244 c 0,0.9594 -0.378,1.8594 -1.062,2.5312 -0.685,0.6719 -1.588,1.0313 -2.553,1.0157 -1.919,-0.0344 -3.482,-1.6969 -3.482,-3.7032 v -7.6343 c 1.375,-0.25 2.691,-0.7032 3.916,-1.3375 -0.966,2.5187 -1.466,5.175 -1.466,7.8937 v 1.2469 h 2.244 v -1.2469 c 0,-4.2781 1.303,-8.25 3.878,-11.8344 0.081,-0.1062 0.159,-0.2156 0.238,-0.3218 0.35,-0.4719 0.722,-0.9344 1.115,-1.3907 2.132,-2.4656 4.294,-3.9656 5.044,-4.45 1.025,0.7157 2.303,1.325 3.891,1.6532 l 0.734,0.15 0.422,-0.6188 c 0.016,-0.0219 1.572,-2.3 3.894,-4.5687 2.059,-2.0125 5.162,-4.4375 8.24,-4.55 l 2.216,-0.0813 -8.05,-10.1375 z m -7.7,17.43437 c -3.966,-1.1594 -5.156,-4.5844 -5.206,-4.7312 l -2.135,0.6937 c 0.038,0.1156 0.557,1.6469 1.96,3.2156 -1.088,0.75 -3.016,2.2313 -4.953,4.4594 -0.475,0.5469 -0.922,1.1063 -1.344,1.6781 -1.691,2.3469 -4.166,3.9532 -6.938,4.5563 V 16.1842 c 0,-4.15 2.435,-7.95627 6.207,-9.69377 l 8.287,-3.82188 c 3.153,2.49688 8.606,2.66876 10.409,2.65001 l 5.125,6.45624 c -5.337,1.4188 -9.968,7.1875 -11.415,9.1469 z"
         fill="#ec7217"
         id="path11" />
      <path
         d="m 151.984,14.8467 h -2.243 v 2.5531 h 2.243 z"
         fill="#ec7217"
         id="path12" />
    </g>
  </g>
  <defs
     id="defs12">
    <clipPath
       id="clip0_410_7968">
      <rect
         width="180"
         height="46.6656"
         fill="#ffffff"
         id="rect12"
         x="0"
         y="0" />
    </clipPath>
  </defs>
  <metadata
     id="metadata13">
    <rdf:RDF>
      <cc:Work
         rdf:about="">
        <dc:title>HathiTrust Home</dc:title>
      </cc:Work>
    </rdf:RDF>
  </metadata>
</svg>
